<mxfile host="app.diagrams.net" modified="2023-09-18T10:17:28.230Z" agent="Mozilla/5.0 (Windows NT 10.0; Win64; x64) AppleWebKit/537.36 (KHTML, like Gecko) Chrome/116.0.0.0 Safari/537.36" etag="9AZMuRnjo2y2ADxNMsLC" version="21.1.8" type="github">
  <diagram id="C5RBs43oDa-KdzZeNtuy" name="Page-1">
    <mxGraphModel dx="954" dy="570" grid="1" gridSize="10" guides="1" tooltips="1" connect="1" arrows="1" fold="1" page="0" pageScale="1" pageWidth="827" pageHeight="1169" math="0" shadow="0">
      <root>
        <mxCell id="WIyWlLk6GJQsqaUBKTNV-0" />
        <mxCell id="WIyWlLk6GJQsqaUBKTNV-1" parent="WIyWlLk6GJQsqaUBKTNV-0" />
        <mxCell id="EomhwDmzgRAm-Eqv1Rle-4" value="" style="edgeStyle=orthogonalEdgeStyle;rounded=0;orthogonalLoop=1;jettySize=auto;html=1;" edge="1" parent="WIyWlLk6GJQsqaUBKTNV-1" source="WIyWlLk6GJQsqaUBKTNV-3" target="EomhwDmzgRAm-Eqv1Rle-3">
          <mxGeometry relative="1" as="geometry" />
        </mxCell>
        <mxCell id="WIyWlLk6GJQsqaUBKTNV-3" value="Начало" style="rounded=1;whiteSpace=wrap;html=1;fontSize=12;glass=0;strokeWidth=1;shadow=0;" parent="WIyWlLk6GJQsqaUBKTNV-1" vertex="1">
          <mxGeometry x="160" y="80" width="120" height="40" as="geometry" />
        </mxCell>
        <mxCell id="WIyWlLk6GJQsqaUBKTNV-11" value="Конец" style="rounded=1;whiteSpace=wrap;html=1;fontSize=12;glass=0;strokeWidth=1;shadow=0;" parent="WIyWlLk6GJQsqaUBKTNV-1" vertex="1">
          <mxGeometry x="160" y="660" width="120" height="40" as="geometry" />
        </mxCell>
        <mxCell id="EomhwDmzgRAm-Eqv1Rle-15" value="" style="edgeStyle=orthogonalEdgeStyle;rounded=0;orthogonalLoop=1;jettySize=auto;html=1;entryX=0.5;entryY=0;entryDx=0;entryDy=0;" edge="1" parent="WIyWlLk6GJQsqaUBKTNV-1" source="EomhwDmzgRAm-Eqv1Rle-0" target="EomhwDmzgRAm-Eqv1Rle-10">
          <mxGeometry relative="1" as="geometry" />
        </mxCell>
        <mxCell id="EomhwDmzgRAm-Eqv1Rle-0" value="Ввод числа x" style="shape=parallelogram;perimeter=parallelogramPerimeter;whiteSpace=wrap;html=1;fixedSize=1;" vertex="1" parent="WIyWlLk6GJQsqaUBKTNV-1">
          <mxGeometry x="160" y="220" width="120" height="60" as="geometry" />
        </mxCell>
        <mxCell id="EomhwDmzgRAm-Eqv1Rle-5" value="" style="edgeStyle=orthogonalEdgeStyle;rounded=0;orthogonalLoop=1;jettySize=auto;html=1;" edge="1" parent="WIyWlLk6GJQsqaUBKTNV-1" source="EomhwDmzgRAm-Eqv1Rle-3" target="EomhwDmzgRAm-Eqv1Rle-0">
          <mxGeometry relative="1" as="geometry" />
        </mxCell>
        <mxCell id="EomhwDmzgRAm-Eqv1Rle-3" value="s = 0" style="rounded=0;whiteSpace=wrap;html=1;" vertex="1" parent="WIyWlLk6GJQsqaUBKTNV-1">
          <mxGeometry x="160" y="150" width="120" height="40" as="geometry" />
        </mxCell>
        <mxCell id="EomhwDmzgRAm-Eqv1Rle-17" value="" style="edgeStyle=orthogonalEdgeStyle;rounded=0;orthogonalLoop=1;jettySize=auto;html=1;" edge="1" parent="WIyWlLk6GJQsqaUBKTNV-1" source="EomhwDmzgRAm-Eqv1Rle-10" target="EomhwDmzgRAm-Eqv1Rle-16">
          <mxGeometry relative="1" as="geometry" />
        </mxCell>
        <mxCell id="EomhwDmzgRAm-Eqv1Rle-10" value="A1" style="swimlane;fontStyle=0;childLayout=stackLayout;horizontal=1;startSize=20;horizontalStack=0;resizeParent=1;resizeParentMax=0;resizeLast=0;collapsible=1;marginBottom=0;whiteSpace=wrap;html=1;" vertex="1" parent="WIyWlLk6GJQsqaUBKTNV-1">
          <mxGeometry x="160" y="310" width="120" height="90" as="geometry" />
        </mxCell>
        <mxCell id="EomhwDmzgRAm-Eqv1Rle-11" value="Вычисление суммы делителей" style="text;strokeColor=none;fillColor=none;align=center;verticalAlign=middle;spacingLeft=4;spacingRight=4;overflow=hidden;points=[[0,0.5],[1,0.5]];portConstraint=eastwest;rotatable=0;whiteSpace=wrap;html=1;" vertex="1" parent="EomhwDmzgRAm-Eqv1Rle-10">
          <mxGeometry y="20" width="120" height="70" as="geometry" />
        </mxCell>
        <mxCell id="EomhwDmzgRAm-Eqv1Rle-20" value="" style="edgeStyle=orthogonalEdgeStyle;rounded=0;orthogonalLoop=1;jettySize=auto;html=1;" edge="1" parent="WIyWlLk6GJQsqaUBKTNV-1" source="EomhwDmzgRAm-Eqv1Rle-16" target="EomhwDmzgRAm-Eqv1Rle-19">
          <mxGeometry relative="1" as="geometry" />
        </mxCell>
        <mxCell id="EomhwDmzgRAm-Eqv1Rle-22" style="edgeStyle=orthogonalEdgeStyle;rounded=0;orthogonalLoop=1;jettySize=auto;html=1;exitX=1;exitY=0.5;exitDx=0;exitDy=0;entryX=0.5;entryY=0;entryDx=0;entryDy=0;" edge="1" parent="WIyWlLk6GJQsqaUBKTNV-1" source="EomhwDmzgRAm-Eqv1Rle-16" target="EomhwDmzgRAm-Eqv1Rle-18">
          <mxGeometry relative="1" as="geometry" />
        </mxCell>
        <mxCell id="EomhwDmzgRAm-Eqv1Rle-16" value="&lt;font style=&quot;font-size: 12px;&quot;&gt;Число больше суммы делителей?&lt;/font&gt;" style="rhombus;whiteSpace=wrap;html=1;spacingLeft=15;spacingBottom=0;spacingRight=15;spacingTop=9;" vertex="1" parent="WIyWlLk6GJQsqaUBKTNV-1">
          <mxGeometry x="140" y="430" width="160" height="80" as="geometry" />
        </mxCell>
        <mxCell id="EomhwDmzgRAm-Eqv1Rle-26" style="edgeStyle=orthogonalEdgeStyle;rounded=0;orthogonalLoop=1;jettySize=auto;html=1;exitX=0.5;exitY=1;exitDx=0;exitDy=0;" edge="1" parent="WIyWlLk6GJQsqaUBKTNV-1" source="EomhwDmzgRAm-Eqv1Rle-18">
          <mxGeometry relative="1" as="geometry">
            <mxPoint x="220" y="630" as="targetPoint" />
            <Array as="points">
              <mxPoint x="420" y="630" />
            </Array>
          </mxGeometry>
        </mxCell>
        <mxCell id="EomhwDmzgRAm-Eqv1Rle-18" value="Вывод &quot;Yes&quot;" style="shape=parallelogram;perimeter=parallelogramPerimeter;whiteSpace=wrap;html=1;fixedSize=1;" vertex="1" parent="WIyWlLk6GJQsqaUBKTNV-1">
          <mxGeometry x="360" y="540" width="120" height="60" as="geometry" />
        </mxCell>
        <mxCell id="EomhwDmzgRAm-Eqv1Rle-25" style="edgeStyle=orthogonalEdgeStyle;rounded=0;orthogonalLoop=1;jettySize=auto;html=1;exitX=0.5;exitY=1;exitDx=0;exitDy=0;entryX=0.5;entryY=0;entryDx=0;entryDy=0;" edge="1" parent="WIyWlLk6GJQsqaUBKTNV-1" source="EomhwDmzgRAm-Eqv1Rle-19" target="WIyWlLk6GJQsqaUBKTNV-11">
          <mxGeometry relative="1" as="geometry" />
        </mxCell>
        <mxCell id="EomhwDmzgRAm-Eqv1Rle-19" value="Вывод &quot;No&quot;" style="shape=parallelogram;perimeter=parallelogramPerimeter;whiteSpace=wrap;html=1;fixedSize=1;" vertex="1" parent="WIyWlLk6GJQsqaUBKTNV-1">
          <mxGeometry x="160" y="540" width="120" height="60" as="geometry" />
        </mxCell>
        <mxCell id="EomhwDmzgRAm-Eqv1Rle-24" value="Да" style="text;html=1;strokeColor=none;fillColor=none;align=center;verticalAlign=middle;whiteSpace=wrap;rounded=0;" vertex="1" parent="WIyWlLk6GJQsqaUBKTNV-1">
          <mxGeometry x="320" y="450" width="60" height="30" as="geometry" />
        </mxCell>
        <mxCell id="EomhwDmzgRAm-Eqv1Rle-31" style="edgeStyle=orthogonalEdgeStyle;rounded=0;orthogonalLoop=1;jettySize=auto;html=1;exitX=0.5;exitY=1;exitDx=0;exitDy=0;" edge="1" parent="WIyWlLk6GJQsqaUBKTNV-1" source="EomhwDmzgRAm-Eqv1Rle-27" target="EomhwDmzgRAm-Eqv1Rle-29">
          <mxGeometry relative="1" as="geometry" />
        </mxCell>
        <mxCell id="EomhwDmzgRAm-Eqv1Rle-27" value="A1&lt;br&gt;Начало" style="rounded=1;whiteSpace=wrap;html=1;" vertex="1" parent="WIyWlLk6GJQsqaUBKTNV-1">
          <mxGeometry x="760" y="80" width="120" height="40" as="geometry" />
        </mxCell>
        <mxCell id="EomhwDmzgRAm-Eqv1Rle-32" style="edgeStyle=orthogonalEdgeStyle;rounded=0;orthogonalLoop=1;jettySize=auto;html=1;exitX=0.5;exitY=1;exitDx=0;exitDy=0;entryX=0.5;entryY=0;entryDx=0;entryDy=0;" edge="1" parent="WIyWlLk6GJQsqaUBKTNV-1" source="EomhwDmzgRAm-Eqv1Rle-29" target="EomhwDmzgRAm-Eqv1Rle-30">
          <mxGeometry relative="1" as="geometry" />
        </mxCell>
        <mxCell id="EomhwDmzgRAm-Eqv1Rle-29" value="i = 1" style="rounded=0;whiteSpace=wrap;html=1;" vertex="1" parent="WIyWlLk6GJQsqaUBKTNV-1">
          <mxGeometry x="760" y="150" width="120" height="40" as="geometry" />
        </mxCell>
        <mxCell id="EomhwDmzgRAm-Eqv1Rle-36" style="edgeStyle=orthogonalEdgeStyle;rounded=0;orthogonalLoop=1;jettySize=auto;html=1;exitX=0;exitY=0.5;exitDx=0;exitDy=0;entryX=0.5;entryY=0;entryDx=0;entryDy=0;" edge="1" parent="WIyWlLk6GJQsqaUBKTNV-1" source="EomhwDmzgRAm-Eqv1Rle-30" target="EomhwDmzgRAm-Eqv1Rle-33">
          <mxGeometry relative="1" as="geometry" />
        </mxCell>
        <mxCell id="EomhwDmzgRAm-Eqv1Rle-44" style="edgeStyle=orthogonalEdgeStyle;rounded=0;orthogonalLoop=1;jettySize=auto;html=1;exitX=0.5;exitY=1;exitDx=0;exitDy=0;entryX=0.5;entryY=0;entryDx=0;entryDy=0;" edge="1" parent="WIyWlLk6GJQsqaUBKTNV-1" source="EomhwDmzgRAm-Eqv1Rle-30" target="EomhwDmzgRAm-Eqv1Rle-42">
          <mxGeometry relative="1" as="geometry" />
        </mxCell>
        <mxCell id="EomhwDmzgRAm-Eqv1Rle-30" value="x делится на i?" style="rhombus;whiteSpace=wrap;html=1;" vertex="1" parent="WIyWlLk6GJQsqaUBKTNV-1">
          <mxGeometry x="740" y="220" width="160" height="80" as="geometry" />
        </mxCell>
        <mxCell id="EomhwDmzgRAm-Eqv1Rle-37" style="edgeStyle=orthogonalEdgeStyle;rounded=0;orthogonalLoop=1;jettySize=auto;html=1;exitX=0.5;exitY=1;exitDx=0;exitDy=0;" edge="1" parent="WIyWlLk6GJQsqaUBKTNV-1" source="EomhwDmzgRAm-Eqv1Rle-33">
          <mxGeometry relative="1" as="geometry">
            <mxPoint x="820" y="380" as="targetPoint" />
            <Array as="points">
              <mxPoint x="650" y="380" />
              <mxPoint x="820" y="380" />
            </Array>
          </mxGeometry>
        </mxCell>
        <mxCell id="EomhwDmzgRAm-Eqv1Rle-33" value="s = s + i" style="rounded=0;whiteSpace=wrap;html=1;" vertex="1" parent="WIyWlLk6GJQsqaUBKTNV-1">
          <mxGeometry x="590" y="320" width="120" height="40" as="geometry" />
        </mxCell>
        <mxCell id="EomhwDmzgRAm-Eqv1Rle-38" style="edgeStyle=orthogonalEdgeStyle;rounded=0;orthogonalLoop=1;jettySize=auto;html=1;exitX=1;exitY=0.5;exitDx=0;exitDy=0;" edge="1" parent="WIyWlLk6GJQsqaUBKTNV-1" source="EomhwDmzgRAm-Eqv1Rle-34">
          <mxGeometry relative="1" as="geometry">
            <mxPoint x="820" y="200" as="targetPoint" />
            <Array as="points">
              <mxPoint x="990" y="520" />
              <mxPoint x="990" y="200" />
            </Array>
          </mxGeometry>
        </mxCell>
        <mxCell id="EomhwDmzgRAm-Eqv1Rle-40" style="edgeStyle=orthogonalEdgeStyle;rounded=0;orthogonalLoop=1;jettySize=auto;html=1;exitX=0.5;exitY=1;exitDx=0;exitDy=0;entryX=0.5;entryY=0;entryDx=0;entryDy=0;" edge="1" parent="WIyWlLk6GJQsqaUBKTNV-1" source="EomhwDmzgRAm-Eqv1Rle-34" target="EomhwDmzgRAm-Eqv1Rle-39">
          <mxGeometry relative="1" as="geometry" />
        </mxCell>
        <mxCell id="EomhwDmzgRAm-Eqv1Rle-34" value="i не больше, чем x / 2?" style="rhombus;whiteSpace=wrap;html=1;" vertex="1" parent="WIyWlLk6GJQsqaUBKTNV-1">
          <mxGeometry x="740" y="480" width="160" height="80" as="geometry" />
        </mxCell>
        <mxCell id="EomhwDmzgRAm-Eqv1Rle-39" value="" style="rounded=1;whiteSpace=wrap;html=1;" vertex="1" parent="WIyWlLk6GJQsqaUBKTNV-1">
          <mxGeometry x="760" y="590" width="120" height="40" as="geometry" />
        </mxCell>
        <mxCell id="EomhwDmzgRAm-Eqv1Rle-41" value="Нет" style="text;html=1;strokeColor=none;fillColor=none;align=center;verticalAlign=middle;whiteSpace=wrap;rounded=0;" vertex="1" parent="WIyWlLk6GJQsqaUBKTNV-1">
          <mxGeometry x="210" y="510" width="60" height="30" as="geometry" />
        </mxCell>
        <mxCell id="EomhwDmzgRAm-Eqv1Rle-43" value="" style="edgeStyle=orthogonalEdgeStyle;rounded=0;orthogonalLoop=1;jettySize=auto;html=1;" edge="1" parent="WIyWlLk6GJQsqaUBKTNV-1" source="EomhwDmzgRAm-Eqv1Rle-42" target="EomhwDmzgRAm-Eqv1Rle-34">
          <mxGeometry relative="1" as="geometry" />
        </mxCell>
        <mxCell id="EomhwDmzgRAm-Eqv1Rle-42" value="i = i + 1" style="rounded=0;whiteSpace=wrap;html=1;" vertex="1" parent="WIyWlLk6GJQsqaUBKTNV-1">
          <mxGeometry x="760" y="410" width="120" height="40" as="geometry" />
        </mxCell>
        <mxCell id="EomhwDmzgRAm-Eqv1Rle-45" style="edgeStyle=orthogonalEdgeStyle;rounded=0;orthogonalLoop=1;jettySize=auto;html=1;exitX=0.5;exitY=1;exitDx=0;exitDy=0;" edge="1" parent="WIyWlLk6GJQsqaUBKTNV-1" source="EomhwDmzgRAm-Eqv1Rle-33" target="EomhwDmzgRAm-Eqv1Rle-33">
          <mxGeometry relative="1" as="geometry" />
        </mxCell>
      </root>
    </mxGraphModel>
  </diagram>
</mxfile>
